<?xml version="1.0" encoding="utf-8"?>
<!-- Generator: Adobe Illustrator 25.1.0, SVG Export Plug-In . SVG Version: 6.00 Build 0)  -->
<svg version="1.1" id="Layer_1" xmlns="http://www.w3.org/2000/svg" xmlns:xlink="http://www.w3.org/1999/xlink" x="0px" y="0px"
	 viewBox="0 0 64 64" style="enable-background:new 0 0 64 64;" xml:space="preserve">
<style type="text/css">
	.st0{fill:#FFFFFF;}
	.st1{fill:#95C13D;}
</style>
<path class="st0" d="M22.34,56.93c-3.41-17.97-1.7-18.56-5.74-53.67c-1.1-5.71-7.66-2.64-7.99-0.98
	c-3.24,15.84-6.6,49.63-6.23,59.08c0.07,1.91,2.1,3.18,3.82,2.32c0.9-0.45,1.53-1.41,1.42-3.25c-0.38-3.58,0.22-7.92,1.26-12.2
	c0.07-0.46,1.34-0.57,5.63,0.19c0.97,0.06,1.59,4.37,2.33,10.76c0.16,1.4,1.19,2.57,2.58,2.84C21.45,62.42,23.23,60.74,22.34,56.93z
	 M14.85,40.41c0.11,1.01,0.95,2.85-2.32,2.94c-3.01,0.08-5.02,2.38-0.27-27.32C13.98,24.18,14,32.12,14.85,40.41z"/>
<path id="XMLID_1_" class="st1" d="M62.68,28.99c-2.61-6.49-7.5-8.75-11.14-9.5c-0.87-0.18-1.79-0.27-2.75-0.27
	c-4.04,0-7.93,1.58-10.39,4.24c-2.85,3.07-3.85,5.79-3.55,9.71c0.59,6.06,6,8.88,9.47,8.88l0.08,0c5.22-0.06,7.11-3.05,7.78-4.82
	c0.53-1.41,0.41-3.39-0.29-4.81c-0.49-0.99-1.22-1.66-2.12-1.93c-0.17-0.05-0.67-0.21-1.17-0.21c-0.54,0-0.96,0.18-1.23,0.53
	l-0.05,0.07l0,0.09c0.02,0.49,0.33,0.78,0.64,1.06c0.24,0.22,0.47,0.43,0.56,0.74c0.56,1.95-0.8,3.05-2.18,3.87
	c-0.59,0.29-1.21,0.44-1.83,0.44c-1.27,0-2.43-0.61-3.19-1.68c-0.99-1.39-1.15-3.37-0.44-5.41c1.5-3.21,3.71-4.51,7.87-4.61l0.13,0
	c3.48,0,7.97,3.39,8.85,8.26c0.65,3.62,0.01,6.72-1.92,9.23c-2.49,3.24-6.46,4.65-9.34,4.88c-7.77,0.64-16.52-3.87-17.33-14.79
	c-0.48-6.44,3.68-17.06,16.85-18.16c0.48-0.04,0.98-0.06,1.47-0.06c1.9,0,3.67,0.3,5.25,0.88c0.41,0.15,0.85,0.23,1.29,0.23
	c1.17,0,2.11-0.53,2.25-1.27c0.09-0.48-0.09-1.75-3.65-3.1l-0.32-0.09c-1.79-0.52-4.49-1.31-7.8-1.31c-1.81,0-3.61,0.24-5.33,0.72
	c-12.38,3.42-17.23,14.28-16.54,23.53c0.73,9.77,8.67,20.15,21.96,20.15c0.7,0,1.43-0.03,2.15-0.09c6.05-0.5,11.31-3.69,14.44-8.76
	C64.25,40.56,64.83,34.34,62.68,28.99z"/>
</svg>
