<?xml version="1.0" encoding="utf-8"?>
<!-- Generator: Adobe Illustrator 25.2.1, SVG Export Plug-In . SVG Version: 6.00 Build 0)  -->
<svg version="1.1" id="Layer_1" xmlns="http://www.w3.org/2000/svg" xmlns:xlink="http://www.w3.org/1999/xlink" x="0px" y="0px"
	 viewBox="0 0 300 200" style="enable-background:new 0 0 300 200;" xml:space="preserve">
<path d="M287.72,129.57L156.65,19.23c-3.81-3.21-9.38-3.21-13.19,0L12.27,129.68c-3.81,3.21-2.65,9.35,2.08,10.93
	c12.09,4.06,34.05,10.54,62.98,15.3c3.39,2.8,6.73,5.12,9.86,7.02c12.2,7.41,23.16,9.98,26.58,10.65
	c8.98,7.57,21.09,11.4,36.29,11.4c15.21,0,27.32-3.83,36.31-11.41c3.47-0.68,14.38-3.25,26.54-10.64c3.02-1.83,6.24-4.06,9.51-6.73
	c20.44-3.4,41.61-8.46,63.2-15.68C290.35,138.94,291.54,132.79,287.72,129.57z M27.09,137.24c-2.65-0.79-3.02-4.39-0.6-5.71
	c8.44-4.62,16.92-8.78,25.42-12.47c4.09,11.71,9.96,20.91,16.32,28.08C51.43,143.96,37.47,140.32,27.09,137.24z M79.92,149.19
	c-8.59-7.51-16.71-18.05-21.76-32.75c8.08-3.29,16.18-6.16,24.31-8.6c-0.54,1-0.99,2.1-1.32,3.31c-1.12,4.03-1,8.86,0.34,13.6
	c1.34,4.74,3.76,8.92,6.83,11.77c2.49,2.31,5.3,3.62,8.04,3.79c0.76,4.16,1.79,8.02,3.05,11.6
	C92.62,151.11,86.11,150.19,79.92,149.19z M92.51,158.15c3.29,0.43,6.65,0.84,10.08,1.21c0.87,1.69,1.83,3.28,2.84,4.8
	C101.69,162.81,97.23,160.87,92.51,158.15z M150.06,177.96c-28.09,0-43.12-13.38-47.32-42.11l-0.65-4.42l-4.15,1.68l-0.27,0.11
	c-1.27,0.36-2.94-0.31-4.58-1.84c-2.11-1.96-3.87-5.07-4.86-8.54c-0.98-3.47-1.1-7.05-0.33-9.82c0.6-2.16,1.67-3.61,2.94-3.97
	c1.41-0.39,3.32,0.5,5.12,2.39l5.2,5.48l0.83-7.51c0.54-4.87,1.55-9.53,2.96-13.94c30.66-6.37,60.32-6.45,89.99-0.57
	c1.49,4.51,2.56,9.3,3.13,14.31l0.83,7.31l5.16-5.24c1.75-1.78,3.6-2.61,4.96-2.23h0c1.27,0.36,2.34,1.8,2.94,3.97
	c0.77,2.77,0.65,6.35-0.33,9.82c-0.98,3.47-2.75,6.58-4.86,8.54c-1.61,1.5-3.25,2.17-4.5,1.87c-0.08-0.03-0.17-0.07-0.26-0.1
	l-4.04-1.47l-0.63,4.26C193.15,164.61,178.12,177.96,150.06,177.96z M194.6,164.29c1-1.49,1.94-3.04,2.8-4.69
	c3.33-0.35,6.7-0.76,10.08-1.19C202.77,161.08,198.33,162.98,194.6,164.29z M220.12,149.46c-6.47,1.06-12.97,1.97-19.51,2.73
	c1.31-3.66,2.36-7.62,3.14-11.89c2.67-0.23,5.39-1.53,7.81-3.78c3.06-2.85,5.49-7.03,6.83-11.77c1.34-4.74,1.46-9.57,0.34-13.6
	c-0.57-2.05-1.46-3.8-2.59-5.23c9.78,2.7,18.58,5.79,26.32,8.9C237.42,130.56,229.02,141.68,220.12,149.46z M275.83,136.31
	c-14.48,4.52-29.24,8.23-44.22,11.11c6.74-7.54,12.97-17.34,17.11-29.99c1.73,0.75,3.41,1.5,5,2.24
	c9.05,4.19,16.67,8.41,22.66,12.04C278.25,132.84,277.92,135.66,275.83,136.31z"/>
</svg>
