<?xml version="1.0" encoding="utf-8"?>
<!-- Generator: Adobe Illustrator 25.2.1, SVG Export Plug-In . SVG Version: 6.00 Build 0)  -->
<svg version="1.1" id="Layer_1" focusable="false" xmlns="http://www.w3.org/2000/svg" xmlns:xlink="http://www.w3.org/1999/xlink"
	 x="0px" y="0px" viewBox="0 0 512 512" style="enable-background:new 0 0 512 512;" xml:space="preserve">
<style type="text/css">
	.st0{fill:#FFFFFF;}
</style>
<path class="st0" d="M191.1,146.5c1.3,7.8,8.1,13.5,16,13.5h16.5c9.8,0,17.6-8.5,16.3-18c-3.7-28.2-16.6-54.4-36.6-74.7
	C189,52.8,179.7,34,176.9,13.8c-1.2-8-8-13.9-16.1-13.8h-16.4c-9,0-16.3,7.2-16.4,16.2c0,0.6,0,1.2,0.1,1.8
	c3.9,31.8,18.1,61.5,40.6,84.4C180.6,114.4,188.4,129.8,191.1,146.5L191.1,146.5z M303.1,146.5c1.3,7.8,8.1,13.5,16,13.5h16.5
	c9.8,0,17.6-8.5,16.3-18c-3.7-28.2-16.6-54.4-36.6-74.7C301,52.8,291.7,34,288.9,13.8c-1.2-8-8.1-13.9-16.1-13.8h-16.4
	c-9.8,0-17.5,8.5-16.3,18c3.9,31.8,18.1,61.5,40.6,84.4C292.5,114.4,300.4,129.8,303.1,146.5L303.1,146.5z M480,192H32
	c-17.7,0-32,14.3-32,32c0,94.7,51.6,177.2,128,221.5V480c0,17.7,14.3,32,32,32h192c17.7,0,32-14.3,32-32v-34.5
	c76.4-44.3,128-126.8,128-221.5C512,206.3,497.7,192,480,192z"/>
</svg>
